<mxfile host="app.diagrams.net" agent="Mozilla/5.0 (Windows NT 10.0; Win64; x64) AppleWebKit/537.36 (KHTML, like Gecko) Chrome/134.0.0.0 Safari/537.36" version="26.1.3">
  <diagram name="Página-1" id="lZ8VBK6m07DKR6jXcEfg">
    <mxGraphModel dx="819" dy="446" grid="0" gridSize="10" guides="1" tooltips="1" connect="1" arrows="1" fold="1" page="1" pageScale="1" pageWidth="827" pageHeight="1169" math="0" shadow="0">
      <root>
        <mxCell id="0" />
        <mxCell id="1" parent="0" />
        <mxCell id="Itw38_x-qZfH9ujCktD6-26" style="edgeStyle=orthogonalEdgeStyle;rounded=0;orthogonalLoop=1;jettySize=auto;html=1;exitX=1;exitY=0.5;exitDx=0;exitDy=0;entryX=0;entryY=0.5;entryDx=0;entryDy=0;" parent="1" source="Itw38_x-qZfH9ujCktD6-1" target="Itw38_x-qZfH9ujCktD6-8" edge="1">
          <mxGeometry relative="1" as="geometry">
            <Array as="points">
              <mxPoint x="276" y="133" />
              <mxPoint x="276" y="179" />
              <mxPoint x="344" y="179" />
              <mxPoint x="344" y="216" />
            </Array>
          </mxGeometry>
        </mxCell>
        <mxCell id="Itw38_x-qZfH9ujCktD6-35" style="edgeStyle=orthogonalEdgeStyle;rounded=0;orthogonalLoop=1;jettySize=auto;html=1;entryX=0;entryY=0.5;entryDx=0;entryDy=0;" parent="1" source="Itw38_x-qZfH9ujCktD6-1" target="Itw38_x-qZfH9ujCktD6-9" edge="1">
          <mxGeometry relative="1" as="geometry">
            <Array as="points">
              <mxPoint x="276" y="133" />
              <mxPoint x="276" y="179" />
              <mxPoint x="344" y="179" />
              <mxPoint x="344" y="115" />
            </Array>
          </mxGeometry>
        </mxCell>
        <mxCell id="Itw38_x-qZfH9ujCktD6-1" value="&lt;font style=&quot;font-size: 18px;&quot;&gt;Elaborar GDD&lt;/font&gt;" style="rounded=1;whiteSpace=wrap;html=1;" parent="1" vertex="1">
          <mxGeometry x="83" y="103" width="120" height="60" as="geometry" />
        </mxCell>
        <mxCell id="Itw38_x-qZfH9ujCktD6-27" style="edgeStyle=orthogonalEdgeStyle;rounded=0;orthogonalLoop=1;jettySize=auto;html=1;exitX=1;exitY=0.5;exitDx=0;exitDy=0;entryX=0;entryY=0.5;entryDx=0;entryDy=0;" parent="1" source="Itw38_x-qZfH9ujCktD6-2" target="Itw38_x-qZfH9ujCktD6-8" edge="1">
          <mxGeometry relative="1" as="geometry">
            <Array as="points">
              <mxPoint x="276" y="227" />
              <mxPoint x="276" y="179" />
              <mxPoint x="344" y="179" />
              <mxPoint x="344" y="216" />
            </Array>
          </mxGeometry>
        </mxCell>
        <mxCell id="Itw38_x-qZfH9ujCktD6-2" value="&lt;font style=&quot;font-size: 18px;&quot;&gt;Elaborar projeto de arquitetura&lt;/font&gt;" style="rounded=1;whiteSpace=wrap;html=1;" parent="1" vertex="1">
          <mxGeometry x="80" y="195" width="123" height="62" as="geometry" />
        </mxCell>
        <mxCell id="Itw38_x-qZfH9ujCktD6-31" style="edgeStyle=orthogonalEdgeStyle;rounded=0;orthogonalLoop=1;jettySize=auto;html=1;entryX=0;entryY=0.5;entryDx=0;entryDy=0;" parent="1" source="Itw38_x-qZfH9ujCktD6-3" target="Itw38_x-qZfH9ujCktD6-10" edge="1">
          <mxGeometry relative="1" as="geometry" />
        </mxCell>
        <mxCell id="Itw38_x-qZfH9ujCktD6-3" value="&lt;font style=&quot;font-size: 18px;&quot;&gt;Estudo do tema&lt;/font&gt;" style="rounded=1;whiteSpace=wrap;html=1;" parent="1" vertex="1">
          <mxGeometry x="80" y="295" width="120" height="60" as="geometry" />
        </mxCell>
        <mxCell id="Itw38_x-qZfH9ujCktD6-4" value="" style="endArrow=none;dashed=1;html=1;dashPattern=1 3;strokeWidth=2;rounded=0;entryX=0.5;entryY=1;entryDx=0;entryDy=0;exitX=0.5;exitY=0;exitDx=0;exitDy=0;" parent="1" source="Itw38_x-qZfH9ujCktD6-3" target="Itw38_x-qZfH9ujCktD6-2" edge="1">
          <mxGeometry width="50" height="50" relative="1" as="geometry">
            <mxPoint x="119" y="303" as="sourcePoint" />
            <mxPoint x="169" y="253" as="targetPoint" />
          </mxGeometry>
        </mxCell>
        <mxCell id="Itw38_x-qZfH9ujCktD6-7" value="&lt;font style=&quot;font-size: 12px;&quot;&gt;em paralelo&lt;/font&gt;" style="edgeLabel;html=1;align=center;verticalAlign=middle;resizable=0;points=[];" parent="Itw38_x-qZfH9ujCktD6-4" vertex="1" connectable="0">
          <mxGeometry x="0.1508" y="1" relative="1" as="geometry">
            <mxPoint as="offset" />
          </mxGeometry>
        </mxCell>
        <mxCell id="Itw38_x-qZfH9ujCktD6-5" value="" style="endArrow=none;dashed=1;html=1;dashPattern=1 3;strokeWidth=2;rounded=0;entryX=0.5;entryY=1;entryDx=0;entryDy=0;exitX=0.5;exitY=0;exitDx=0;exitDy=0;" parent="1" source="Itw38_x-qZfH9ujCktD6-2" target="Itw38_x-qZfH9ujCktD6-1" edge="1">
          <mxGeometry width="50" height="50" relative="1" as="geometry">
            <mxPoint x="143" y="193" as="sourcePoint" />
            <mxPoint x="142.76" y="161" as="targetPoint" />
          </mxGeometry>
        </mxCell>
        <mxCell id="Itw38_x-qZfH9ujCktD6-6" value="&lt;font style=&quot;font-size: 12px;&quot;&gt;em paralelo&lt;/font&gt;" style="edgeLabel;html=1;align=center;verticalAlign=middle;resizable=0;points=[];" parent="Itw38_x-qZfH9ujCktD6-5" vertex="1" connectable="0">
          <mxGeometry x="0.0291" relative="1" as="geometry">
            <mxPoint as="offset" />
          </mxGeometry>
        </mxCell>
        <mxCell id="Itw38_x-qZfH9ujCktD6-34" style="edgeStyle=orthogonalEdgeStyle;rounded=0;orthogonalLoop=1;jettySize=auto;html=1;entryX=0;entryY=0.5;entryDx=0;entryDy=0;" parent="1" source="Itw38_x-qZfH9ujCktD6-8" target="Itw38_x-qZfH9ujCktD6-13" edge="1">
          <mxGeometry relative="1" as="geometry" />
        </mxCell>
        <mxCell id="Itw38_x-qZfH9ujCktD6-8" value="&lt;font style=&quot;font-size: 18px;&quot;&gt;Desenvolvimento do jogo&lt;/font&gt;" style="rounded=1;whiteSpace=wrap;html=1;" parent="1" vertex="1">
          <mxGeometry x="363" y="185" width="142" height="61" as="geometry" />
        </mxCell>
        <mxCell id="Itw38_x-qZfH9ujCktD6-36" style="edgeStyle=orthogonalEdgeStyle;rounded=0;orthogonalLoop=1;jettySize=auto;html=1;entryX=0;entryY=0.5;entryDx=0;entryDy=0;" parent="1" source="Itw38_x-qZfH9ujCktD6-9" target="Itw38_x-qZfH9ujCktD6-13" edge="1">
          <mxGeometry relative="1" as="geometry">
            <Array as="points">
              <mxPoint x="609" y="115" />
              <mxPoint x="609" y="216" />
            </Array>
          </mxGeometry>
        </mxCell>
        <mxCell id="Itw38_x-qZfH9ujCktD6-9" value="&lt;font style=&quot;font-size: 18px;&quot;&gt;Testes&lt;/font&gt;" style="rounded=1;whiteSpace=wrap;html=1;" parent="1" vertex="1">
          <mxGeometry x="373" y="85" width="120" height="60" as="geometry" />
        </mxCell>
        <mxCell id="Itw38_x-qZfH9ujCktD6-29" style="edgeStyle=orthogonalEdgeStyle;rounded=0;orthogonalLoop=1;jettySize=auto;html=1;exitX=1;exitY=0.5;exitDx=0;exitDy=0;entryX=0;entryY=0.5;entryDx=0;entryDy=0;" parent="1" source="Itw38_x-qZfH9ujCktD6-10" target="Itw38_x-qZfH9ujCktD6-11" edge="1">
          <mxGeometry relative="1" as="geometry" />
        </mxCell>
        <mxCell id="Itw38_x-qZfH9ujCktD6-10" value="&lt;font style=&quot;font-size: 18px;&quot;&gt;Estudo dos modelos de IA&lt;/font&gt;" style="rounded=1;whiteSpace=wrap;html=1;" parent="1" vertex="1">
          <mxGeometry x="232" y="295" width="120" height="60" as="geometry" />
        </mxCell>
        <mxCell id="Itw38_x-qZfH9ujCktD6-32" style="edgeStyle=orthogonalEdgeStyle;rounded=0;orthogonalLoop=1;jettySize=auto;html=1;" parent="1" source="Itw38_x-qZfH9ujCktD6-11" target="Itw38_x-qZfH9ujCktD6-12" edge="1">
          <mxGeometry relative="1" as="geometry" />
        </mxCell>
        <mxCell id="Itw38_x-qZfH9ujCktD6-11" value="&lt;font style=&quot;font-size: 18px;&quot;&gt;Escolha do modelo e treinamento&lt;/font&gt;" style="rounded=1;whiteSpace=wrap;html=1;" parent="1" vertex="1">
          <mxGeometry x="373" y="293" width="126" height="64" as="geometry" />
        </mxCell>
        <mxCell id="Itw38_x-qZfH9ujCktD6-33" style="edgeStyle=orthogonalEdgeStyle;rounded=0;orthogonalLoop=1;jettySize=auto;html=1;exitX=0.75;exitY=0;exitDx=0;exitDy=0;entryX=0;entryY=0.5;entryDx=0;entryDy=0;" parent="1" source="Itw38_x-qZfH9ujCktD6-12" target="Itw38_x-qZfH9ujCktD6-13" edge="1">
          <mxGeometry relative="1" as="geometry" />
        </mxCell>
        <mxCell id="Itw38_x-qZfH9ujCktD6-12" value="&lt;font style=&quot;font-size: 18px;&quot;&gt;Implementação&lt;/font&gt;" style="rounded=1;whiteSpace=wrap;html=1;" parent="1" vertex="1">
          <mxGeometry x="511" y="295" width="131" height="60" as="geometry" />
        </mxCell>
        <mxCell id="Itw38_x-qZfH9ujCktD6-13" value="&lt;font style=&quot;font-size: 18px;&quot;&gt;Testes e ajustes finais&lt;/font&gt;" style="rounded=1;whiteSpace=wrap;html=1;" parent="1" vertex="1">
          <mxGeometry x="629" y="186" width="120" height="60" as="geometry" />
        </mxCell>
        <mxCell id="Itw38_x-qZfH9ujCktD6-14" value="" style="endArrow=none;dashed=1;html=1;dashPattern=1 3;strokeWidth=2;rounded=0;entryX=0.531;entryY=1.034;entryDx=0;entryDy=0;entryPerimeter=0;exitX=0.527;exitY=0.011;exitDx=0;exitDy=0;exitPerimeter=0;" parent="1" source="Itw38_x-qZfH9ujCktD6-8" target="Itw38_x-qZfH9ujCktD6-9" edge="1">
          <mxGeometry width="50" height="50" relative="1" as="geometry">
            <mxPoint x="437" y="182" as="sourcePoint" />
            <mxPoint x="436" y="142" as="targetPoint" />
          </mxGeometry>
        </mxCell>
        <mxCell id="Itw38_x-qZfH9ujCktD6-15" value="&lt;font style=&quot;font-size: 12px;&quot;&gt;em paralelo&lt;/font&gt;" style="edgeLabel;html=1;align=center;verticalAlign=middle;resizable=0;points=[];" parent="Itw38_x-qZfH9ujCktD6-14" vertex="1" connectable="0">
          <mxGeometry x="0.0291" relative="1" as="geometry">
            <mxPoint as="offset" />
          </mxGeometry>
        </mxCell>
        <mxCell id="Itw38_x-qZfH9ujCktD6-18" value="" style="endArrow=none;dashed=1;html=1;dashPattern=1 3;strokeWidth=2;rounded=0;entryX=0.5;entryY=1;entryDx=0;entryDy=0;exitX=0.5;exitY=0;exitDx=0;exitDy=0;" parent="1" source="Itw38_x-qZfH9ujCktD6-11" target="Itw38_x-qZfH9ujCktD6-8" edge="1">
          <mxGeometry width="50" height="50" relative="1" as="geometry">
            <mxPoint x="435" y="293" as="sourcePoint" />
            <mxPoint x="436" y="253" as="targetPoint" />
          </mxGeometry>
        </mxCell>
        <mxCell id="Itw38_x-qZfH9ujCktD6-19" value="&lt;font style=&quot;font-size: 12px;&quot;&gt;em paralelo&lt;/font&gt;" style="edgeLabel;html=1;align=center;verticalAlign=middle;resizable=0;points=[];" parent="Itw38_x-qZfH9ujCktD6-18" vertex="1" connectable="0">
          <mxGeometry x="0.0291" relative="1" as="geometry">
            <mxPoint as="offset" />
          </mxGeometry>
        </mxCell>
        <mxCell id="Itw38_x-qZfH9ujCktD6-21" value="" style="endArrow=none;dashed=1;html=1;dashPattern=1 3;strokeWidth=2;rounded=0;entryX=0.25;entryY=1;entryDx=0;entryDy=0;exitX=0.5;exitY=0;exitDx=0;exitDy=0;" parent="1" source="Itw38_x-qZfH9ujCktD6-10" target="Itw38_x-qZfH9ujCktD6-8" edge="1">
          <mxGeometry width="50" height="50" relative="1" as="geometry">
            <mxPoint x="304" y="278" as="sourcePoint" />
            <mxPoint x="305" y="238" as="targetPoint" />
          </mxGeometry>
        </mxCell>
        <mxCell id="Itw38_x-qZfH9ujCktD6-22" value="&lt;font style=&quot;font-size: 12px;&quot;&gt;em paralelo&lt;/font&gt;" style="edgeLabel;html=1;align=center;verticalAlign=middle;resizable=0;points=[];" parent="Itw38_x-qZfH9ujCktD6-21" vertex="1" connectable="0">
          <mxGeometry x="0.0291" relative="1" as="geometry">
            <mxPoint as="offset" />
          </mxGeometry>
        </mxCell>
        <mxCell id="Itw38_x-qZfH9ujCktD6-24" value="" style="endArrow=none;dashed=1;html=1;dashPattern=1 3;strokeWidth=2;rounded=0;entryX=0.75;entryY=1;entryDx=0;entryDy=0;exitX=0.5;exitY=0;exitDx=0;exitDy=0;" parent="1" source="Itw38_x-qZfH9ujCktD6-12" target="Itw38_x-qZfH9ujCktD6-8" edge="1">
          <mxGeometry width="50" height="50" relative="1" as="geometry">
            <mxPoint x="555" y="270" as="sourcePoint" />
            <mxPoint x="556" y="230" as="targetPoint" />
          </mxGeometry>
        </mxCell>
        <mxCell id="Itw38_x-qZfH9ujCktD6-25" value="&lt;font style=&quot;font-size: 12px;&quot;&gt;em paralelo&lt;/font&gt;" style="edgeLabel;html=1;align=center;verticalAlign=middle;resizable=0;points=[];" parent="Itw38_x-qZfH9ujCktD6-24" vertex="1" connectable="0">
          <mxGeometry x="0.0291" relative="1" as="geometry">
            <mxPoint as="offset" />
          </mxGeometry>
        </mxCell>
      </root>
    </mxGraphModel>
  </diagram>
</mxfile>
